PathFileType	4	(X/Y/Z)	 markers_DSEM.trc
DataRate	CameraRate	NumFrames	NumMarkers	Units	OrigDataRate	OrigDataStartFrame	OrigNumFrames
100	100	2	10	cm	100	1	1
Frame#	Time	IJ			AC			AI			TS			SC			GH			EL			EM			US			RS			
		X1	Y1	Z1	X2	Y2	Z2	X3	Y3	Z3	X4	Y4	Z4	X5	Y5	Z5	X6	Y6	Z6	X7	Y7	Z7	X8	Y8	Z8	X9	Y9	Z9	X10	Y10	Z10
1	0.01	0.00000     0.00000     0.00000	16.51    	2.66    	7.18	10.16  		-12.62   	15.67		7.50   	   -1.17   		15.60		1.97    	0.93    	1.37	17.08   	-1.92    	6.55	21.53  		-30.21    	7.15	15.66  		-30.79   	10.56	21.54  		-55.71    	3.39	17.29  		-55.01   	 0.01	
2	0.02	0.00000     0.00000     0.00000	16.50940    2.66000     7.18000	10.16794   	-12.63215   15.65449	7.50000    -1.18394     15.59429	1.97000     0.93000     1.37000	17.08274    -1.91903    6.54596	20.48017    -30.56597   6.54596	13.68531    -31.06730   6.54596	22.17033    -56.40118   6.54595	27.54164    -55.30639    6.54584	
